External Loads File
version=1
nRows=38
nColumns=13
Range=5.000000e-03-10 seconds
endheader
time 	forceRightX 	forceRightY 	forceRightZ 	pointRightX 	pointRightY 	pointRightZ 	forceLeftX 	forceLeftY 	forceLeftZ 	pointLeftX 	pointLeftY 	pointLeftZ 		
5.005000 -20.805688 -43.072946 -0.000000 0.107768 0.402356 -0.160745 -147.612257 697.683044 -0.000000 0.347999 0.232672 -0.403636
5.010000 -28.052346 -47.258146 -0.000000 0.113239 0.412319 -0.161185 -122.396129 709.375339 -0.000000 0.342963 0.223173 -0.403791
5.015000 -34.631333 -50.979986 -0.000000 0.119033 0.422064 -0.161594 -96.702086 716.759682 -0.000000 0.337372 0.214295 -0.403811
5.020000 -40.601089 -53.970956 -0.000000 0.125321 0.431353 -0.161997 -70.435030 719.484511 -0.000000 0.331263 0.205736 -0.403774
5.025000 -46.005464 -55.963800 -0.000000 0.131984 0.440226 -0.162538 -44.294633 717.282615 -0.000000 0.324641 0.197674 -0.403852
5.030000 -51.062913 -56.519953 -0.000000 0.139817 0.448867 -0.162434 -16.962594 710.200370 -0.000000 0.317642 0.190003 -0.403869
5.035000 -55.309530 -55.796784 -0.000000 0.145315 0.456983 -0.164298 4.358879 698.325281 -0.000000 0.310236 0.182837 -0.403822
5.040000 -59.637426 -52.628234 -0.000000 0.154215 0.464772 -0.164183 29.981551 682.143213 -0.000000 0.302383 0.176379 -0.403747
5.045000 -63.307829 -47.423665 -0.000000 0.161975 0.471691 -0.164760 50.716812 662.387550 -0.000000 0.294256 0.170462 -0.403674
5.050000 -66.471029 -39.740094 -0.000000 0.170149 0.478342 -0.165916 69.730952 639.770665 -0.000000 0.285885 0.165163 -0.403531
5.055000 -68.905389 -29.662749 -0.000000 0.178526 0.484277 -0.166647 86.193480 615.143190 -0.000000 0.277265 0.160477 -0.403431
5.060000 -70.424714 -17.409696 -0.000000 0.186932 0.489537 -0.167307 100.015610 589.278357 -0.000000 0.268429 0.156439 -0.403314
5.065000 -70.890729 -3.219532 -0.000000 0.195766 0.494068 -0.167842 112.459451 562.589272 -0.000000 0.259324 0.152912 -0.403211
5.070000 -70.153649 12.348614 -0.000000 0.204692 0.497901 -0.168165 123.386357 535.433867 -0.000000 0.249986 0.150210 -0.403043
5.075000 -68.170102 28.688297 -0.000000 0.213640 0.500935 -0.168364 133.175517 507.711251 -0.000000 0.240492 0.148084 -0.402825
5.080000 -65.027902 45.112677 -0.000000 0.222398 0.503401 -0.168546 141.792274 479.077061 -0.000000 0.230900 0.146778 -0.402560
5.085000 -60.923028 61.032062 -0.000000 0.231032 0.505021 -0.168633 149.375001 448.964681 -0.000000 0.221269 0.146154 -0.402220
5.090000 -56.201174 75.985878 -0.000000 0.239417 0.505858 -0.168630 155.568546 416.968625 -0.000000 0.211726 0.146502 -0.401883
5.095000 -51.288858 89.854807 -0.000000 0.247575 0.505886 -0.168589 160.155942 382.787138 -0.000000 0.202333 0.147497 -0.401561
5.100000 -46.668030 102.908782 -0.000000 0.255464 0.504995 -0.168411 162.885943 346.354535 -0.000000 0.193082 0.149228 -0.401279
5.105000 -42.889573 115.742797 -0.000000 0.263150 0.503387 -0.168064 163.336769 308.026519 -0.000000 0.184268 0.151667 -0.400904
5.110000 -40.348639 129.203744 -0.000000 0.270510 0.500779 -0.167642 161.585520 268.316468 -0.000000 0.175693 0.154742 -0.400745
5.115000 -39.417954 144.120472 -0.000000 0.277571 0.497499 -0.167135 157.702681 228.071777 -0.000000 0.167376 0.158459 -0.400573
5.120000 -40.303783 161.207000 -0.000000 0.284455 0.493333 -0.166537 152.046528 188.216788 -0.000000 0.159354 0.162911 -0.400286
5.125000 -43.294820 180.936486 -0.000000 0.291085 0.488546 -0.165687 144.846513 149.946525 -0.000000 0.151619 0.167972 -0.400040
5.130000 -48.596945 203.553538 -0.000000 0.297265 0.482857 -0.164260 136.497107 114.392049 -0.000000 0.144187 0.173611 -0.399767
5.135000 -56.080232 229.054027 -0.000000 0.303201 0.475893 -0.162804 127.521383 82.365259 -0.000000 0.137058 0.179648 -0.399611
5.140000 -65.670513 257.021294 -0.000000 0.309089 0.468286 -0.162049 118.227286 54.605978 -0.000000 0.130284 0.186188 -0.399399
5.145000 -77.111246 286.693738 -0.000000 0.315199 0.460488 -0.161643 108.896415 31.574355 -0.000000 0.123852 0.193146 -0.399331
5.150000 -90.181704 317.020271 -0.000000 0.320896 0.452137 -0.161241 99.762144 13.511457 -0.000000 0.117768 0.200590 -0.399272
5.155000 -103.856988 347.088281 -0.000000 0.326636 0.442959 -0.160872 91.071807 0.163365 -0.000000 0.112142 0.208362 -0.399300
5.160000 -118.252191 375.768541 -0.000000 0.331729 0.433466 -0.160357 83.021508 -8.603496 -0.000000 0.107005 0.216561 -0.399281
5.165000 -132.314781 402.539911 -0.000000 0.337018 0.423842 -0.160354 75.804841 -13.451712 -0.000000 0.102319 0.224944 -0.399517
5.170000 -145.195259 427.188831 -0.000000 0.341432 0.413277 -0.160080 69.557340 -15.119905 -0.000000 0.098067 0.233762 -0.399833
5.175000 -157.179795 449.486615 -0.000000 0.345790 0.403042 -0.159894 64.365466 -14.292888 -0.000000 0.094402 0.242900 -0.399904
5.180000 -167.712366 469.786495 -0.000000 0.349551 0.392557 -0.159287 60.122163 -11.852302 -0.000000 0.091193 0.252242 -0.399963
5.185000 -176.154271 488.673688 -0.000000 0.353094 0.381860 -0.159411 56.595357 -8.574893 -0.000000 0.088592 0.261868 -0.400062
5.190000 -182.728593 506.509824 -0.000000 0.356107 0.371091 -0.159263 53.562263 -4.947175 -0.000000 0.086558 0.271726 -0.400050
